<?xml version="1.0" standalone="no"?>
<!DOCTYPE svg PUBLIC "-//W3C//DTD SVG 1.1//EN" "http://www.w3.org/Graphics/SVG/1.1/DTD/svg11.dtd"><svg t="1608628676965"
  class="icon" viewBox="0 0 1024 1024" version="1.1" xmlns="http://www.w3.org/2000/svg" p-id="3001" width="32"
  height="32" xmlns:xlink="http://www.w3.org/1999/xlink">
  <defs>
    <style type="text/css"></style>
  </defs>
  <path
    d="M512.3 1023.2c-68.8 0-135.6-13.5-198.5-40.1-60.7-25.7-115.3-62.5-162.1-109.3S68.1 772.5 42.4 711.7C15.8 648.8 2.3 582.1 2.3 513.2c0-82.4 19.9-163.3 57.7-235.8 8-15.3 27.3-20.7 42.1-11.8 13.6 8.2 18.4 25.5 11.1 39.5-33.3 63.9-50.9 135.3-50.9 208 0 248.1 201.9 450 450 450 248.4 0 450-201.6 450-450 0-248.1-201.9-450-450-450-64.2 0-127.9 13.8-185.9 40.1-14.4 6.5-31.3 0.6-38.7-13.3-8.2-15.3-1.6-34.3 14.2-41.5C367.6 18.8 439.7 3.3 512.3 3.3c68.8 0 135.6 13.5 198.5 40.1 60.7 25.7 115.3 62.5 162.1 109.3s83.6 101.4 109.3 162.1c26.6 62.9 40.1 129.7 40.1 198.5s-13.5 135.6-40.1 198.5c-25.7 60.7-62.5 115.3-109.3 162.1s-101.4 83.6-162.1 109.3c-62.9 26.5-129.7 40-198.5 40z"
    p-id="3002" fill="#2c2c2c"></path>
  <path
    d="M513.4 769.7c-31.2 0-62.4-5.8-92.4-17.4-63.7-24.7-113.9-72.6-141.5-135.1-27.6-62.5-29.2-131.9-4.6-195.6 19-48.9 51.9-90.3 95.3-119.5 33.1-22.3 70.4-36.4 109.4-41.6 17.6-2.3 33.2 11.5 33.2 29.2v0.9c0 14.9-11.1 27.4-25.9 29.4-70.2 9.4-129.9 55.7-156.1 123.3-38.9 100.6 11.2 214.1 111.8 253.1 48.7 18.9 101.9 17.6 149.7-3.5 47.8-21.1 84.5-59.6 103.4-108.3 8.4-21.6 12.8-44.7 13.2-67.7 0.2-15 11.5-27.6 26.4-29.4 18-2.2 33.9 12 33.6 30.2-0.5 30.2-6.3 60.3-17.2 88.6C727 669.9 679 720.2 616.6 747.8c-33.1 14.6-68.1 21.9-103.2 21.9z"
    p-id="3003" fill="#2c2c2c"></path>
  <path d="M675.6 342m-79 0a79 79 0 1 0 158 0 79 79 0 1 0-158 0Z" p-id="3004" fill="#2c2c2c"></path>
</svg>